# xmcd
#
# Track frame offsets:
#  150
#  20462
#  36767
#
# Disc length: 659 seconds
#
# Revision: 0
# Processed by: cddbd v1.5.2PL0 Copyright (c) Steve Scherf et al.
# Submitted via: AltoMP3_Maker 3.0
#
DISCID=1a029103
DTITLE=Losing Scarlet - Winter 2009 Sampler
DYEAR=1900
DGENRE=
TTITLE0=Shade Of Hate
TTITLE1=All I Am
TTITLE2=Call Me
EXTD=
EXTT0=
EXTT1=
EXTT2=
PLAYORDER=
